<mxfile host="Electron" agent="Mozilla/5.0 (Windows NT 10.0; Win64; x64) AppleWebKit/537.36 (KHTML, like Gecko) draw.io/24.7.17 Chrome/128.0.6613.36 Electron/32.0.1 Safari/537.36" version="24.7.17">
  <diagram name="Page-1" id="p8J13Eus_eL60CYvkrqD">
    <mxGraphModel dx="1851" dy="1376" grid="1" gridSize="10" guides="1" tooltips="1" connect="1" arrows="1" fold="1" page="1" pageScale="1" pageWidth="1000" pageHeight="1000" math="0" shadow="0">
      <root>
        <mxCell id="0" />
        <mxCell id="1" parent="0" />
        <mxCell id="OcFp6CyiSyLSBWcYTiPV-47" value="VPC" style="points=[[0,0],[0.25,0],[0.5,0],[0.75,0],[1,0],[1,0.25],[1,0.5],[1,0.75],[1,1],[0.75,1],[0.5,1],[0.25,1],[0,1],[0,0.75],[0,0.5],[0,0.25]];outlineConnect=0;gradientColor=none;html=1;whiteSpace=wrap;fontSize=12;fontStyle=0;container=1;pointerEvents=0;collapsible=0;recursiveResize=0;shape=mxgraph.aws4.group;grIcon=mxgraph.aws4.group_vpc2;strokeColor=#8C4FFF;fillColor=none;verticalAlign=top;align=left;spacingLeft=30;fontColor=#AAB7B8;dashed=0;" vertex="1" parent="1">
          <mxGeometry x="40" y="40" width="600" height="300" as="geometry" />
        </mxCell>
        <mxCell id="OcFp6CyiSyLSBWcYTiPV-48" value="WebServerSecurityGroup" style="fillColor=none;strokeColor=#DD3522;verticalAlign=top;fontStyle=1;fontColor=#DD3522;whiteSpace=wrap;html=1;fontSize=14;" vertex="1" parent="OcFp6CyiSyLSBWcYTiPV-47">
          <mxGeometry x="40" y="40" width="520" height="100" as="geometry" />
        </mxCell>
        <mxCell id="OcFp6CyiSyLSBWcYTiPV-49" value="ApplicationSecurityGroup" style="fillColor=none;strokeColor=#DD3522;verticalAlign=top;fontStyle=1;fontColor=#DD3522;whiteSpace=wrap;html=1;fontSize=14;" vertex="1" parent="OcFp6CyiSyLSBWcYTiPV-47">
          <mxGeometry x="40" y="160" width="520" height="100" as="geometry" />
        </mxCell>
        <mxCell id="OcFp6CyiSyLSBWcYTiPV-52" value="" style="sketch=0;outlineConnect=0;fontColor=#232F3E;gradientColor=none;fillColor=#ED7100;strokeColor=none;dashed=0;verticalLabelPosition=bottom;verticalAlign=top;align=center;html=1;fontSize=12;fontStyle=0;aspect=fixed;pointerEvents=1;shape=mxgraph.aws4.instance2;" vertex="1" parent="OcFp6CyiSyLSBWcYTiPV-47">
          <mxGeometry x="280" y="200" width="38" height="38" as="geometry" />
        </mxCell>
        <mxCell id="OcFp6CyiSyLSBWcYTiPV-54" value="" style="sketch=0;outlineConnect=0;fontColor=#232F3E;gradientColor=none;fillColor=#ED7100;strokeColor=none;dashed=0;verticalLabelPosition=bottom;verticalAlign=top;align=center;html=1;fontSize=12;fontStyle=0;aspect=fixed;pointerEvents=1;shape=mxgraph.aws4.instance2;" vertex="1" parent="OcFp6CyiSyLSBWcYTiPV-47">
          <mxGeometry x="360" y="200" width="38" height="38" as="geometry" />
        </mxCell>
        <mxCell id="OcFp6CyiSyLSBWcYTiPV-55" value="" style="sketch=0;outlineConnect=0;fontColor=#232F3E;gradientColor=none;fillColor=#ED7100;strokeColor=none;dashed=0;verticalLabelPosition=bottom;verticalAlign=top;align=center;html=1;fontSize=12;fontStyle=0;aspect=fixed;pointerEvents=1;shape=mxgraph.aws4.instance2;" vertex="1" parent="OcFp6CyiSyLSBWcYTiPV-47">
          <mxGeometry x="200" y="200" width="38" height="38" as="geometry" />
        </mxCell>
        <mxCell id="OcFp6CyiSyLSBWcYTiPV-56" value="" style="sketch=0;outlineConnect=0;fontColor=#232F3E;gradientColor=none;fillColor=#ED7100;strokeColor=none;dashed=0;verticalLabelPosition=bottom;verticalAlign=top;align=center;html=1;fontSize=12;fontStyle=0;aspect=fixed;pointerEvents=1;shape=mxgraph.aws4.instance2;" vertex="1" parent="OcFp6CyiSyLSBWcYTiPV-47">
          <mxGeometry x="281" y="80" width="38" height="38" as="geometry" />
        </mxCell>
        <mxCell id="OcFp6CyiSyLSBWcYTiPV-57" value="" style="sketch=0;outlineConnect=0;fontColor=#232F3E;gradientColor=none;fillColor=#ED7100;strokeColor=none;dashed=0;verticalLabelPosition=bottom;verticalAlign=top;align=center;html=1;fontSize=12;fontStyle=0;aspect=fixed;pointerEvents=1;shape=mxgraph.aws4.instance2;" vertex="1" parent="OcFp6CyiSyLSBWcYTiPV-47">
          <mxGeometry x="361" y="80" width="38" height="38" as="geometry" />
        </mxCell>
        <mxCell id="OcFp6CyiSyLSBWcYTiPV-58" value="" style="sketch=0;outlineConnect=0;fontColor=#232F3E;gradientColor=none;fillColor=#ED7100;strokeColor=none;dashed=0;verticalLabelPosition=bottom;verticalAlign=top;align=center;html=1;fontSize=12;fontStyle=0;aspect=fixed;pointerEvents=1;shape=mxgraph.aws4.instance2;" vertex="1" parent="OcFp6CyiSyLSBWcYTiPV-47">
          <mxGeometry x="201" y="80" width="38" height="38" as="geometry" />
        </mxCell>
        <mxCell id="OcFp6CyiSyLSBWcYTiPV-59" value="" style="sketch=0;outlineConnect=0;fontColor=#232F3E;gradientColor=none;fillColor=#ED7100;strokeColor=none;dashed=0;verticalLabelPosition=bottom;verticalAlign=top;align=center;html=1;fontSize=12;fontStyle=0;aspect=fixed;pointerEvents=1;shape=mxgraph.aws4.instance2;" vertex="1" parent="OcFp6CyiSyLSBWcYTiPV-47">
          <mxGeometry x="441" y="80" width="38" height="38" as="geometry" />
        </mxCell>
        <mxCell id="OcFp6CyiSyLSBWcYTiPV-60" value="" style="sketch=0;outlineConnect=0;fontColor=#232F3E;gradientColor=none;fillColor=#ED7100;strokeColor=none;dashed=0;verticalLabelPosition=bottom;verticalAlign=top;align=center;html=1;fontSize=12;fontStyle=0;aspect=fixed;pointerEvents=1;shape=mxgraph.aws4.instance2;" vertex="1" parent="OcFp6CyiSyLSBWcYTiPV-47">
          <mxGeometry x="120" y="80" width="38" height="38" as="geometry" />
        </mxCell>
      </root>
    </mxGraphModel>
  </diagram>
</mxfile>
